# Blender v2.79 (sub 0) OBJ File: 'door_frame.blend'
# www.blender.org
mtllib door_frame.mtl
o Cube
v 0.041937 -1.000000 -1.000000
v 0.041937 -1.000000 1.000000
v -0.041937 -1.000000 1.000000
v -0.041937 -1.000000 -1.000000
v 0.041937 1.000000 -0.999999
v 0.041937 1.000000 1.000001
v -0.041937 1.000000 1.000000
v -0.041937 1.000000 -1.000000
v 0.041937 -1.000000 -0.333333
v 0.041937 -1.000000 0.333333
v 0.041937 0.333333 -1.000000
v 0.041937 0.333333 1.000000
v -0.041937 -1.000000 0.333333
v -0.041937 -1.000000 -0.333334
v -0.041937 0.333333 1.000000
v -0.041937 0.333333 -1.000000
v -0.041937 0.333333 0.333333
v -0.041937 0.333333 -0.333334
v 0.041937 0.333333 -0.333333
v 0.041937 0.333333 0.333334
vn -1.0000 -0.0000 -0.0000
vn 0.0000 0.0000 -1.0000
vn 1.0000 0.0000 0.0000
vn 0.0000 1.0000 -0.0000
vn 0.0000 -1.0000 -0.0000
vn -0.0000 -0.0000 1.0000
usemtl Material
s off
f 13//1 3//1 15//1 17//1
f 20//2 10//2 13//2 17//2
f 2//3 10//3 20//3 12//3
f 7//1 8//1 16//1 18//1 17//1 15//1
f 5//3 6//3 12//3 20//3 19//3 11//3
f 7//4 6//4 5//4 8//4
f 11//2 1//2 4//2 16//2 8//2 5//2
f 14//5 4//5 1//5 9//5
f 12//6 6//6 7//6 15//6 3//6 2//6
f 19//6 18//6 14//6 9//6
f 17//5 18//5 19//5 20//5
f 10//5 2//5 3//5 13//5
f 9//3 1//3 11//3 19//3
f 4//1 14//1 18//1 16//1
