# Blender v2.79 (sub 0) OBJ File: 'foundation_stairs_reduced.blend'
# www.blender.org
mtllib foundation_stairs_reduced_mesh.mtl
o Cube_Cube.001
v -1.000000 1.000000 1.000000
v -1.000000 1.000000 -1.000000
v 1.000000 -1.000000 1.000000
v 1.000000 -1.000000 -1.000000
v 0.750000 -0.750000 -1.000000
v 0.750000 -0.750000 1.000000
v -0.750000 0.750000 1.000000
v -1.000000 0.750000 1.000000
v 1.012959 -0.750345 -1.000000
v 1.012959 -0.750345 1.000000
v -0.737041 0.999655 1.000000
v -0.737041 0.999655 -1.000000
v 0.750000 -1.000000 -1.000000
v 0.750000 -1.000000 1.000000
v -1.000000 0.750000 -1.000000
v -0.996333 -1.005363 0.998476
v 0.750000 -1.000000 0.875000
v 0.750000 -1.000000 -0.875000
v -1.000000 0.750000 1.000000
v -1.000000 0.750000 -0.875000
v -0.733374 -1.005708 -1.001524
v -0.733374 -1.005708 0.998476
v -1.000000 0.750000 0.875000
v -0.996333 -1.005363 -1.001524
v -0.996333 -1.005363 0.998476
v -0.733195 -0.869540 -1.001524
v -0.733195 -0.869540 0.998476
v -0.996155 -0.869194 -1.001524
v -0.996155 -0.869194 0.998476
v -1.000000 0.750000 -1.000000
v -0.733195 -0.869540 -1.001524
v -0.996155 -0.869194 -1.001524
v -0.733360 -0.867075 -0.887792
v -0.996320 -0.866729 -0.887792
v -0.731182 -0.868375 0.884053
v -0.994142 -0.868030 0.884053
v -0.753951 0.749281 -0.936627
v -0.743650 0.759298 0.905563
vn 0.9987 -0.0518 0.0000
vn 0.0013 1.0000 0.0000
vn -1.0000 0.0000 0.0000
vn 0.0000 -1.0000 0.0000
vn 1.0000 -0.0013 0.0000
vn 0.0000 0.0000 -1.0000
vn 0.0000 0.0000 1.0000
vn -0.0004 0.0008 -1.0000
vn 0.0013 0.9999 0.0102
vn -1.0000 0.0013 0.0000
vn 0.0172 -0.9998 0.0027
vn 0.0013 0.9998 -0.0217
vn 0.0013 1.0000 0.0007
vn 0.1202 0.0120 0.9927
vn -1.0000 -0.0023 -0.0007
vn 0.0587 0.0042 -0.9983
vn -1.0000 -0.0030 -0.0084
vn -0.0013 -1.0000 0.0000
vn -0.0000 -0.0009 1.0000
vn 0.9991 0.0087 0.0404
vn 0.9942 0.0084 0.1076
vn -0.1597 -0.1187 -0.9800
vn 0.7620 0.6476 0.0000
vn -0.7588 -0.6514 0.0009
usemtl None
s off
f 4//1 9//1 10//1 3//1
f 11//2 12//2 2//2 1//2
f 8//3 1//3 2//3 15//3 20//3 23//3
f 14//4 17//4 18//4 13//4 4//4 3//4
f 22//5 21//5 26//5 27//5
f 4//6 13//6 5//6 9//6
f 3//7 10//7 6//7 14//7
f 8//7 7//7 11//7 1//7
f 12//8 31//8 32//8 30//8 2//8
f 36//9 29//9 27//9 35//9
f 24//10 25//10 29//10 28//10
f 21//6 24//6 28//6 26//6
f 20//11 37//11 38//11 23//11
f 34//12 33//12 31//12 32//12
f 35//13 33//13 34//13 36//13
f 34//14 33//14 37//14 20//14
f 34//15 20//15 30//15 32//15
f 29//7 25//7 22//7 27//7
f 23//16 38//16 35//16 36//16
f 36//17 29//17 19//17 23//17
f 25//18 24//18 21//18 22//18
f 29//19 27//19 7//19 19//19
f 27//20 35//20 38//20 7//20
f 12//21 37//21 33//21 31//21
f 13//22 37//22 12//22 5//22
f 11//7 7//7 14//7 6//7
f 11//23 6//23 5//23 12//23
f 9//2 5//2 6//2 10//2
f 13//24 14//24 7//24 37//24
l 8 19
l 25 16
l 16 19
l 19 25
l 15 24
l 28 32
l 31 26
l 15 30
